%TF.GenerationSoftware,KiCad,Pcbnew,(5.1.10)-1*%
%TF.CreationDate,2021-08-10T22:37:01+09:00*%
%TF.ProjectId,Ultramarine_fuse,556c7472-616d-4617-9269-6e655f667573,rev?*%
%TF.SameCoordinates,Original*%
%TF.FileFunction,Paste,Top*%
%TF.FilePolarity,Positive*%
%FSLAX46Y46*%
G04 Gerber Fmt 4.6, Leading zero omitted, Abs format (unit mm)*
G04 Created by KiCad (PCBNEW (5.1.10)-1) date 2021-08-10 22:37:01*
%MOMM*%
%LPD*%
G01*
G04 APERTURE LIST*
%ADD10R,1.600000X1.000000*%
%ADD11R,0.609600X0.609600*%
G04 APERTURE END LIST*
D10*
%TO.C,U36*%
X224515300Y-90326501D03*
X224515300Y-92326501D03*
X219715300Y-92326501D03*
X219715300Y-90326501D03*
X224515300Y-92326501D03*
X224515300Y-90326501D03*
X219715300Y-90326501D03*
X219715300Y-92326501D03*
%TD*%
%TO.C,U35*%
X231915300Y-84806501D03*
X231915300Y-86806501D03*
X227115300Y-86806501D03*
X227115300Y-84806501D03*
X231915300Y-86806501D03*
X231915300Y-84806501D03*
X227115300Y-84806501D03*
X227115300Y-86806501D03*
%TD*%
%TO.C,U34*%
X205415300Y-115486501D03*
X205415300Y-117486501D03*
X200615300Y-117486501D03*
X200615300Y-115486501D03*
X205415300Y-117486501D03*
X205415300Y-115486501D03*
X200615300Y-115486501D03*
X200615300Y-117486501D03*
%TD*%
%TO.C,U33*%
X224515300Y-84806501D03*
X224515300Y-86806501D03*
X219715300Y-86806501D03*
X219715300Y-84806501D03*
X224515300Y-86806501D03*
X224515300Y-84806501D03*
X219715300Y-84806501D03*
X219715300Y-86806501D03*
%TD*%
%TO.C,U32*%
X231915300Y-79286501D03*
X231915300Y-81286501D03*
X227115300Y-81286501D03*
X227115300Y-79286501D03*
X231915300Y-81286501D03*
X231915300Y-79286501D03*
X227115300Y-79286501D03*
X227115300Y-81286501D03*
%TD*%
%TO.C,U31*%
X243615300Y-66706501D03*
X243615300Y-68706501D03*
X238815300Y-68706501D03*
X238815300Y-66706501D03*
X243615300Y-68706501D03*
X243615300Y-66706501D03*
X238815300Y-66706501D03*
X238815300Y-68706501D03*
%TD*%
%TO.C,U30*%
X251015300Y-61186501D03*
X251015300Y-63186501D03*
X246215300Y-63186501D03*
X246215300Y-61186501D03*
X251015300Y-63186501D03*
X251015300Y-61186501D03*
X246215300Y-61186501D03*
X246215300Y-63186501D03*
%TD*%
%TO.C,U29*%
X224515300Y-101366501D03*
X224515300Y-103366501D03*
X219715300Y-103366501D03*
X219715300Y-101366501D03*
X224515300Y-103366501D03*
X224515300Y-101366501D03*
X219715300Y-101366501D03*
X219715300Y-103366501D03*
%TD*%
%TO.C,U28*%
X189315300Y-133586501D03*
X189315300Y-135586501D03*
X184515300Y-135586501D03*
X184515300Y-133586501D03*
X189315300Y-135586501D03*
X189315300Y-133586501D03*
X184515300Y-133586501D03*
X184515300Y-135586501D03*
%TD*%
%TO.C,U27*%
X258415300Y-66706501D03*
X258415300Y-68706501D03*
X253615300Y-68706501D03*
X253615300Y-66706501D03*
X258415300Y-68706501D03*
X258415300Y-66706501D03*
X253615300Y-66706501D03*
X253615300Y-68706501D03*
%TD*%
%TO.C,U26*%
X251015300Y-72226501D03*
X251015300Y-74226501D03*
X246215300Y-74226501D03*
X246215300Y-72226501D03*
X251015300Y-74226501D03*
X251015300Y-72226501D03*
X246215300Y-72226501D03*
X246215300Y-74226501D03*
%TD*%
%TO.C,U25*%
X246715300Y-77746501D03*
X246715300Y-79746501D03*
X241915300Y-79746501D03*
X241915300Y-77746501D03*
X246715300Y-79746501D03*
X246715300Y-77746501D03*
X241915300Y-77746501D03*
X241915300Y-79746501D03*
%TD*%
%TO.C,U24*%
X239315300Y-84806501D03*
X239315300Y-86806501D03*
X234515300Y-86806501D03*
X234515300Y-84806501D03*
X239315300Y-86806501D03*
X239315300Y-84806501D03*
X234515300Y-84806501D03*
X234515300Y-86806501D03*
%TD*%
%TO.C,U23*%
X231915300Y-90326501D03*
X231915300Y-92326501D03*
X227115300Y-92326501D03*
X227115300Y-90326501D03*
X231915300Y-92326501D03*
X231915300Y-90326501D03*
X227115300Y-90326501D03*
X227115300Y-92326501D03*
%TD*%
%TO.C,U22*%
X239315300Y-79286501D03*
X239315300Y-81286501D03*
X234515300Y-81286501D03*
X234515300Y-79286501D03*
X239315300Y-81286501D03*
X239315300Y-79286501D03*
X234515300Y-79286501D03*
X234515300Y-81286501D03*
%TD*%
%TO.C,U21*%
X212815300Y-115486501D03*
X212815300Y-117486501D03*
X208015300Y-117486501D03*
X208015300Y-115486501D03*
X212815300Y-117486501D03*
X212815300Y-115486501D03*
X208015300Y-115486501D03*
X208015300Y-117486501D03*
%TD*%
%TO.C,U20*%
X231915300Y-95846501D03*
X231915300Y-97846501D03*
X227115300Y-97846501D03*
X227115300Y-95846501D03*
X231915300Y-97846501D03*
X231915300Y-95846501D03*
X227115300Y-95846501D03*
X227115300Y-97846501D03*
%TD*%
%TO.C,U19*%
X174515300Y-133586501D03*
X174515300Y-135586501D03*
X169715300Y-135586501D03*
X169715300Y-133586501D03*
X174515300Y-135586501D03*
X174515300Y-133586501D03*
X169715300Y-133586501D03*
X169715300Y-135586501D03*
%TD*%
%TO.C,U18*%
X205415300Y-121006501D03*
X205415300Y-123006501D03*
X200615300Y-123006501D03*
X200615300Y-121006501D03*
X205415300Y-123006501D03*
X205415300Y-121006501D03*
X200615300Y-121006501D03*
X200615300Y-123006501D03*
%TD*%
%TO.C,U17*%
X106615300Y-136286501D03*
X106615300Y-138286501D03*
X101815300Y-138286501D03*
X101815300Y-136286501D03*
X106615300Y-138286501D03*
X106615300Y-136286501D03*
X101815300Y-136286501D03*
X101815300Y-138286501D03*
%TD*%
%TO.C,U16*%
X115315300Y-133586501D03*
X115315300Y-135586501D03*
X110515300Y-135586501D03*
X110515300Y-133586501D03*
X115315300Y-135586501D03*
X115315300Y-133586501D03*
X110515300Y-133586501D03*
X110515300Y-135586501D03*
%TD*%
%TO.C,U15*%
X122715300Y-133586501D03*
X122715300Y-135586501D03*
X117915300Y-135586501D03*
X117915300Y-133586501D03*
X122715300Y-135586501D03*
X122715300Y-133586501D03*
X117915300Y-133586501D03*
X117915300Y-135586501D03*
%TD*%
%TO.C,U14*%
X137515300Y-133586501D03*
X137515300Y-135586501D03*
X132715300Y-135586501D03*
X132715300Y-133586501D03*
X137515300Y-135586501D03*
X137515300Y-133586501D03*
X132715300Y-133586501D03*
X132715300Y-135586501D03*
%TD*%
%TO.C,U13*%
X144915300Y-133586501D03*
X144915300Y-135586501D03*
X140115300Y-135586501D03*
X140115300Y-133586501D03*
X144915300Y-135586501D03*
X144915300Y-133586501D03*
X140115300Y-133586501D03*
X140115300Y-135586501D03*
%TD*%
%TO.C,U12*%
X152315300Y-133586501D03*
X152315300Y-135586501D03*
X147515300Y-135586501D03*
X147515300Y-133586501D03*
X152315300Y-135586501D03*
X152315300Y-133586501D03*
X147515300Y-133586501D03*
X147515300Y-135586501D03*
%TD*%
%TO.C,U11*%
X159715300Y-133586501D03*
X159715300Y-135586501D03*
X154915300Y-135586501D03*
X154915300Y-133586501D03*
X159715300Y-135586501D03*
X159715300Y-133586501D03*
X154915300Y-133586501D03*
X154915300Y-135586501D03*
%TD*%
%TO.C,U10*%
X167115300Y-133586501D03*
X167115300Y-135586501D03*
X162315300Y-135586501D03*
X162315300Y-133586501D03*
X167115300Y-135586501D03*
X167115300Y-133586501D03*
X162315300Y-133586501D03*
X162315300Y-135586501D03*
%TD*%
%TO.C,U9*%
X224515300Y-79286501D03*
X224515300Y-81286501D03*
X219715300Y-81286501D03*
X219715300Y-79286501D03*
X224515300Y-81286501D03*
X224515300Y-79286501D03*
X219715300Y-79286501D03*
X219715300Y-81286501D03*
%TD*%
%TO.C,U8*%
X243615300Y-61186501D03*
X243615300Y-63186501D03*
X238815300Y-63186501D03*
X238815300Y-61186501D03*
X243615300Y-63186501D03*
X243615300Y-61186501D03*
X238815300Y-61186501D03*
X238815300Y-63186501D03*
%TD*%
%TO.C,U7*%
X251015300Y-66706501D03*
X251015300Y-68706501D03*
X246215300Y-68706501D03*
X246215300Y-66706501D03*
X251015300Y-68706501D03*
X251015300Y-66706501D03*
X246215300Y-66706501D03*
X246215300Y-68706501D03*
%TD*%
%TO.C,U6*%
X130115300Y-133586501D03*
X130115300Y-135586501D03*
X125315300Y-135586501D03*
X125315300Y-133586501D03*
X130115300Y-135586501D03*
X130115300Y-133586501D03*
X125315300Y-133586501D03*
X125315300Y-135586501D03*
%TD*%
%TO.C,U5*%
X224515300Y-95846501D03*
X224515300Y-97846501D03*
X219715300Y-97846501D03*
X219715300Y-95846501D03*
X224515300Y-97846501D03*
X224515300Y-95846501D03*
X219715300Y-95846501D03*
X219715300Y-97846501D03*
%TD*%
%TO.C,U4*%
X181915300Y-133586501D03*
X181915300Y-135586501D03*
X177115300Y-135586501D03*
X177115300Y-133586501D03*
X181915300Y-135586501D03*
X181915300Y-133586501D03*
X177115300Y-133586501D03*
X177115300Y-135586501D03*
%TD*%
%TO.C,U3*%
X258415300Y-61186501D03*
X258415300Y-63186501D03*
X253615300Y-63186501D03*
X253615300Y-61186501D03*
X258415300Y-63186501D03*
X258415300Y-61186501D03*
X253615300Y-61186501D03*
X253615300Y-63186501D03*
%TD*%
%TO.C,U2*%
X243615300Y-72226501D03*
X243615300Y-74226501D03*
X238815300Y-74226501D03*
X238815300Y-72226501D03*
X243615300Y-74226501D03*
X243615300Y-72226501D03*
X238815300Y-72226501D03*
X238815300Y-74226501D03*
%TD*%
%TO.C,R3*%
G36*
G01*
X202315300Y-126226501D02*
X202315300Y-125626501D01*
G75*
G02*
X202615300Y-125326501I300000J0D01*
G01*
X203515300Y-125326501D01*
G75*
G02*
X203815300Y-125626501I0J-300000D01*
G01*
X203815300Y-126226501D01*
G75*
G02*
X203515300Y-126526501I-300000J0D01*
G01*
X202615300Y-126526501D01*
G75*
G02*
X202315300Y-126226501I0J300000D01*
G01*
G37*
G36*
G01*
X199815300Y-126226501D02*
X199815300Y-125626501D01*
G75*
G02*
X200115300Y-125326501I300000J0D01*
G01*
X201015300Y-125326501D01*
G75*
G02*
X201315300Y-125626501I0J-300000D01*
G01*
X201315300Y-126226501D01*
G75*
G02*
X201015300Y-126526501I-300000J0D01*
G01*
X200115300Y-126526501D01*
G75*
G02*
X199815300Y-126226501I0J300000D01*
G01*
G37*
%TD*%
%TO.C,R2*%
G36*
G01*
X181615300Y-138806501D02*
X181615300Y-138206501D01*
G75*
G02*
X181915300Y-137906501I300000J0D01*
G01*
X182815300Y-137906501D01*
G75*
G02*
X183115300Y-138206501I0J-300000D01*
G01*
X183115300Y-138806501D01*
G75*
G02*
X182815300Y-139106501I-300000J0D01*
G01*
X181915300Y-139106501D01*
G75*
G02*
X181615300Y-138806501I0J300000D01*
G01*
G37*
G36*
G01*
X179115300Y-138806501D02*
X179115300Y-138206501D01*
G75*
G02*
X179415300Y-137906501I300000J0D01*
G01*
X180315300Y-137906501D01*
G75*
G02*
X180615300Y-138206501I0J-300000D01*
G01*
X180615300Y-138806501D01*
G75*
G02*
X180315300Y-139106501I-300000J0D01*
G01*
X179415300Y-139106501D01*
G75*
G02*
X179115300Y-138806501I0J300000D01*
G01*
G37*
%TD*%
%TO.C,R1*%
G36*
G01*
X259415300Y-58386501D02*
X259415300Y-57786501D01*
G75*
G02*
X259715300Y-57486501I300000J0D01*
G01*
X260615300Y-57486501D01*
G75*
G02*
X260915300Y-57786501I0J-300000D01*
G01*
X260915300Y-58386501D01*
G75*
G02*
X260615300Y-58686501I-300000J0D01*
G01*
X259715300Y-58686501D01*
G75*
G02*
X259415300Y-58386501I0J300000D01*
G01*
G37*
G36*
G01*
X256915300Y-58386501D02*
X256915300Y-57786501D01*
G75*
G02*
X257215300Y-57486501I300000J0D01*
G01*
X258115300Y-57486501D01*
G75*
G02*
X258415300Y-57786501I0J-300000D01*
G01*
X258415300Y-58386501D01*
G75*
G02*
X258115300Y-58686501I-300000J0D01*
G01*
X257215300Y-58686501D01*
G75*
G02*
X256915300Y-58386501I0J300000D01*
G01*
G37*
%TD*%
D11*
%TO.C,JP8*%
X178006100Y-140480501D03*
X176990100Y-140480501D03*
%TD*%
%TO.C,JP7*%
X102336100Y-128040501D03*
X101320100Y-128040501D03*
%TD*%
%TO.C,JP6*%
X86536100Y-140490501D03*
X85520100Y-140490501D03*
%TD*%
%TO.C,JP5*%
X89156100Y-140490501D03*
X88140100Y-140490501D03*
%TD*%
%TO.C,JP4*%
X91776100Y-140490501D03*
X90760100Y-140490501D03*
%TD*%
%TO.C,JP3*%
X94396100Y-140490501D03*
X93380100Y-140490501D03*
%TD*%
%TO.C,JP2*%
X102336100Y-129660501D03*
X101320100Y-129660501D03*
%TD*%
%TO.C,JP1*%
X175386100Y-140110501D03*
X174370100Y-140110501D03*
%TD*%
%TO.C,D36*%
G36*
G01*
X98065300Y-140576500D02*
X98065300Y-140176500D01*
G75*
G02*
X98265300Y-139976500I200000J0D01*
G01*
X98665300Y-139976500D01*
G75*
G02*
X98865300Y-140176500I0J-200000D01*
G01*
X98865300Y-140576500D01*
G75*
G02*
X98665300Y-140776500I-200000J0D01*
G01*
X98265300Y-140776500D01*
G75*
G02*
X98065300Y-140576500I0J200000D01*
G01*
G37*
G36*
G01*
X96415300Y-140576500D02*
X96415300Y-140176500D01*
G75*
G02*
X96615300Y-139976500I200000J0D01*
G01*
X97015300Y-139976500D01*
G75*
G02*
X97215300Y-140176500I0J-200000D01*
G01*
X97215300Y-140576500D01*
G75*
G02*
X97015300Y-140776500I-200000J0D01*
G01*
X96615300Y-140776500D01*
G75*
G02*
X96415300Y-140576500I0J200000D01*
G01*
G37*
%TD*%
%TO.C,D35*%
G36*
G01*
X128615300Y-138571500D02*
X128615300Y-138071500D01*
G75*
G02*
X128840300Y-137846500I225000J0D01*
G01*
X129290300Y-137846500D01*
G75*
G02*
X129515300Y-138071500I0J-225000D01*
G01*
X129515300Y-138571500D01*
G75*
G02*
X129290300Y-138796500I-225000J0D01*
G01*
X128840300Y-138796500D01*
G75*
G02*
X128615300Y-138571500I0J225000D01*
G01*
G37*
G36*
G01*
X131765300Y-138571500D02*
X131765300Y-138071500D01*
G75*
G02*
X131990300Y-137846500I225000J0D01*
G01*
X132440300Y-137846500D01*
G75*
G02*
X132665300Y-138071500I0J-225000D01*
G01*
X132665300Y-138571500D01*
G75*
G02*
X132440300Y-138796500I-225000J0D01*
G01*
X131990300Y-138796500D01*
G75*
G02*
X131765300Y-138571500I0J225000D01*
G01*
G37*
%TD*%
%TO.C,D34*%
G36*
G01*
X133665300Y-138571500D02*
X133665300Y-138071500D01*
G75*
G02*
X133890300Y-137846500I225000J0D01*
G01*
X134340300Y-137846500D01*
G75*
G02*
X134565300Y-138071500I0J-225000D01*
G01*
X134565300Y-138571500D01*
G75*
G02*
X134340300Y-138796500I-225000J0D01*
G01*
X133890300Y-138796500D01*
G75*
G02*
X133665300Y-138571500I0J225000D01*
G01*
G37*
G36*
G01*
X136815300Y-138571500D02*
X136815300Y-138071500D01*
G75*
G02*
X137040300Y-137846500I225000J0D01*
G01*
X137490300Y-137846500D01*
G75*
G02*
X137715300Y-138071500I0J-225000D01*
G01*
X137715300Y-138571500D01*
G75*
G02*
X137490300Y-138796500I-225000J0D01*
G01*
X137040300Y-138796500D01*
G75*
G02*
X136815300Y-138571500I0J225000D01*
G01*
G37*
%TD*%
%TO.C,D33*%
G36*
G01*
X128615300Y-140521500D02*
X128615300Y-140021500D01*
G75*
G02*
X128840300Y-139796500I225000J0D01*
G01*
X129290300Y-139796500D01*
G75*
G02*
X129515300Y-140021500I0J-225000D01*
G01*
X129515300Y-140521500D01*
G75*
G02*
X129290300Y-140746500I-225000J0D01*
G01*
X128840300Y-140746500D01*
G75*
G02*
X128615300Y-140521500I0J225000D01*
G01*
G37*
G36*
G01*
X131765300Y-140521500D02*
X131765300Y-140021500D01*
G75*
G02*
X131990300Y-139796500I225000J0D01*
G01*
X132440300Y-139796500D01*
G75*
G02*
X132665300Y-140021500I0J-225000D01*
G01*
X132665300Y-140521500D01*
G75*
G02*
X132440300Y-140746500I-225000J0D01*
G01*
X131990300Y-140746500D01*
G75*
G02*
X131765300Y-140521500I0J225000D01*
G01*
G37*
%TD*%
%TO.C,D32*%
G36*
G01*
X118515300Y-138571500D02*
X118515300Y-138071500D01*
G75*
G02*
X118740300Y-137846500I225000J0D01*
G01*
X119190300Y-137846500D01*
G75*
G02*
X119415300Y-138071500I0J-225000D01*
G01*
X119415300Y-138571500D01*
G75*
G02*
X119190300Y-138796500I-225000J0D01*
G01*
X118740300Y-138796500D01*
G75*
G02*
X118515300Y-138571500I0J225000D01*
G01*
G37*
G36*
G01*
X121665300Y-138571500D02*
X121665300Y-138071500D01*
G75*
G02*
X121890300Y-137846500I225000J0D01*
G01*
X122340300Y-137846500D01*
G75*
G02*
X122565300Y-138071500I0J-225000D01*
G01*
X122565300Y-138571500D01*
G75*
G02*
X122340300Y-138796500I-225000J0D01*
G01*
X121890300Y-138796500D01*
G75*
G02*
X121665300Y-138571500I0J225000D01*
G01*
G37*
%TD*%
%TO.C,D31*%
G36*
G01*
X256915300Y-54251500D02*
X256915300Y-53751500D01*
G75*
G02*
X257140300Y-53526500I225000J0D01*
G01*
X257590300Y-53526500D01*
G75*
G02*
X257815300Y-53751500I0J-225000D01*
G01*
X257815300Y-54251500D01*
G75*
G02*
X257590300Y-54476500I-225000J0D01*
G01*
X257140300Y-54476500D01*
G75*
G02*
X256915300Y-54251500I0J225000D01*
G01*
G37*
G36*
G01*
X260065300Y-54251500D02*
X260065300Y-53751500D01*
G75*
G02*
X260290300Y-53526500I225000J0D01*
G01*
X260740300Y-53526500D01*
G75*
G02*
X260965300Y-53751500I0J-225000D01*
G01*
X260965300Y-54251500D01*
G75*
G02*
X260740300Y-54476500I-225000J0D01*
G01*
X260290300Y-54476500D01*
G75*
G02*
X260065300Y-54251500I0J225000D01*
G01*
G37*
%TD*%
%TO.C,D30*%
G36*
G01*
X138715300Y-140521500D02*
X138715300Y-140021500D01*
G75*
G02*
X138940300Y-139796500I225000J0D01*
G01*
X139390300Y-139796500D01*
G75*
G02*
X139615300Y-140021500I0J-225000D01*
G01*
X139615300Y-140521500D01*
G75*
G02*
X139390300Y-140746500I-225000J0D01*
G01*
X138940300Y-140746500D01*
G75*
G02*
X138715300Y-140521500I0J225000D01*
G01*
G37*
G36*
G01*
X141865300Y-140521500D02*
X141865300Y-140021500D01*
G75*
G02*
X142090300Y-139796500I225000J0D01*
G01*
X142540300Y-139796500D01*
G75*
G02*
X142765300Y-140021500I0J-225000D01*
G01*
X142765300Y-140521500D01*
G75*
G02*
X142540300Y-140746500I-225000J0D01*
G01*
X142090300Y-140746500D01*
G75*
G02*
X141865300Y-140521500I0J225000D01*
G01*
G37*
%TD*%
%TO.C,D29*%
G36*
G01*
X143765300Y-138571500D02*
X143765300Y-138071500D01*
G75*
G02*
X143990300Y-137846500I225000J0D01*
G01*
X144440300Y-137846500D01*
G75*
G02*
X144665300Y-138071500I0J-225000D01*
G01*
X144665300Y-138571500D01*
G75*
G02*
X144440300Y-138796500I-225000J0D01*
G01*
X143990300Y-138796500D01*
G75*
G02*
X143765300Y-138571500I0J225000D01*
G01*
G37*
G36*
G01*
X146915300Y-138571500D02*
X146915300Y-138071500D01*
G75*
G02*
X147140300Y-137846500I225000J0D01*
G01*
X147590300Y-137846500D01*
G75*
G02*
X147815300Y-138071500I0J-225000D01*
G01*
X147815300Y-138571500D01*
G75*
G02*
X147590300Y-138796500I-225000J0D01*
G01*
X147140300Y-138796500D01*
G75*
G02*
X146915300Y-138571500I0J225000D01*
G01*
G37*
%TD*%
%TO.C,D28*%
G36*
G01*
X148815300Y-138571500D02*
X148815300Y-138071500D01*
G75*
G02*
X149040300Y-137846500I225000J0D01*
G01*
X149490300Y-137846500D01*
G75*
G02*
X149715300Y-138071500I0J-225000D01*
G01*
X149715300Y-138571500D01*
G75*
G02*
X149490300Y-138796500I-225000J0D01*
G01*
X149040300Y-138796500D01*
G75*
G02*
X148815300Y-138571500I0J225000D01*
G01*
G37*
G36*
G01*
X151965300Y-138571500D02*
X151965300Y-138071500D01*
G75*
G02*
X152190300Y-137846500I225000J0D01*
G01*
X152640300Y-137846500D01*
G75*
G02*
X152865300Y-138071500I0J-225000D01*
G01*
X152865300Y-138571500D01*
G75*
G02*
X152640300Y-138796500I-225000J0D01*
G01*
X152190300Y-138796500D01*
G75*
G02*
X151965300Y-138571500I0J225000D01*
G01*
G37*
%TD*%
%TO.C,D27*%
G36*
G01*
X153865300Y-138571500D02*
X153865300Y-138071500D01*
G75*
G02*
X154090300Y-137846500I225000J0D01*
G01*
X154540300Y-137846500D01*
G75*
G02*
X154765300Y-138071500I0J-225000D01*
G01*
X154765300Y-138571500D01*
G75*
G02*
X154540300Y-138796500I-225000J0D01*
G01*
X154090300Y-138796500D01*
G75*
G02*
X153865300Y-138571500I0J225000D01*
G01*
G37*
G36*
G01*
X157015300Y-138571500D02*
X157015300Y-138071500D01*
G75*
G02*
X157240300Y-137846500I225000J0D01*
G01*
X157690300Y-137846500D01*
G75*
G02*
X157915300Y-138071500I0J-225000D01*
G01*
X157915300Y-138571500D01*
G75*
G02*
X157690300Y-138796500I-225000J0D01*
G01*
X157240300Y-138796500D01*
G75*
G02*
X157015300Y-138571500I0J225000D01*
G01*
G37*
%TD*%
%TO.C,D26*%
G36*
G01*
X143765300Y-140521500D02*
X143765300Y-140021500D01*
G75*
G02*
X143990300Y-139796500I225000J0D01*
G01*
X144440300Y-139796500D01*
G75*
G02*
X144665300Y-140021500I0J-225000D01*
G01*
X144665300Y-140521500D01*
G75*
G02*
X144440300Y-140746500I-225000J0D01*
G01*
X143990300Y-140746500D01*
G75*
G02*
X143765300Y-140521500I0J225000D01*
G01*
G37*
G36*
G01*
X146915300Y-140521500D02*
X146915300Y-140021500D01*
G75*
G02*
X147140300Y-139796500I225000J0D01*
G01*
X147590300Y-139796500D01*
G75*
G02*
X147815300Y-140021500I0J-225000D01*
G01*
X147815300Y-140521500D01*
G75*
G02*
X147590300Y-140746500I-225000J0D01*
G01*
X147140300Y-140746500D01*
G75*
G02*
X146915300Y-140521500I0J225000D01*
G01*
G37*
%TD*%
%TO.C,D25*%
G36*
G01*
X148815300Y-140521500D02*
X148815300Y-140021500D01*
G75*
G02*
X149040300Y-139796500I225000J0D01*
G01*
X149490300Y-139796500D01*
G75*
G02*
X149715300Y-140021500I0J-225000D01*
G01*
X149715300Y-140521500D01*
G75*
G02*
X149490300Y-140746500I-225000J0D01*
G01*
X149040300Y-140746500D01*
G75*
G02*
X148815300Y-140521500I0J225000D01*
G01*
G37*
G36*
G01*
X151965300Y-140521500D02*
X151965300Y-140021500D01*
G75*
G02*
X152190300Y-139796500I225000J0D01*
G01*
X152640300Y-139796500D01*
G75*
G02*
X152865300Y-140021500I0J-225000D01*
G01*
X152865300Y-140521500D01*
G75*
G02*
X152640300Y-140746500I-225000J0D01*
G01*
X152190300Y-140746500D01*
G75*
G02*
X151965300Y-140521500I0J225000D01*
G01*
G37*
%TD*%
%TO.C,D24*%
G36*
G01*
X153865300Y-140521500D02*
X153865300Y-140021500D01*
G75*
G02*
X154090300Y-139796500I225000J0D01*
G01*
X154540300Y-139796500D01*
G75*
G02*
X154765300Y-140021500I0J-225000D01*
G01*
X154765300Y-140521500D01*
G75*
G02*
X154540300Y-140746500I-225000J0D01*
G01*
X154090300Y-140746500D01*
G75*
G02*
X153865300Y-140521500I0J225000D01*
G01*
G37*
G36*
G01*
X157015300Y-140521500D02*
X157015300Y-140021500D01*
G75*
G02*
X157240300Y-139796500I225000J0D01*
G01*
X157690300Y-139796500D01*
G75*
G02*
X157915300Y-140021500I0J-225000D01*
G01*
X157915300Y-140521500D01*
G75*
G02*
X157690300Y-140746500I-225000J0D01*
G01*
X157240300Y-140746500D01*
G75*
G02*
X157015300Y-140521500I0J225000D01*
G01*
G37*
%TD*%
%TO.C,D23*%
G36*
G01*
X158915300Y-138571500D02*
X158915300Y-138071500D01*
G75*
G02*
X159140300Y-137846500I225000J0D01*
G01*
X159590300Y-137846500D01*
G75*
G02*
X159815300Y-138071500I0J-225000D01*
G01*
X159815300Y-138571500D01*
G75*
G02*
X159590300Y-138796500I-225000J0D01*
G01*
X159140300Y-138796500D01*
G75*
G02*
X158915300Y-138571500I0J225000D01*
G01*
G37*
G36*
G01*
X162065300Y-138571500D02*
X162065300Y-138071500D01*
G75*
G02*
X162290300Y-137846500I225000J0D01*
G01*
X162740300Y-137846500D01*
G75*
G02*
X162965300Y-138071500I0J-225000D01*
G01*
X162965300Y-138571500D01*
G75*
G02*
X162740300Y-138796500I-225000J0D01*
G01*
X162290300Y-138796500D01*
G75*
G02*
X162065300Y-138571500I0J225000D01*
G01*
G37*
%TD*%
%TO.C,D22*%
G36*
G01*
X256915300Y-42551500D02*
X256915300Y-42051500D01*
G75*
G02*
X257140300Y-41826500I225000J0D01*
G01*
X257590300Y-41826500D01*
G75*
G02*
X257815300Y-42051500I0J-225000D01*
G01*
X257815300Y-42551500D01*
G75*
G02*
X257590300Y-42776500I-225000J0D01*
G01*
X257140300Y-42776500D01*
G75*
G02*
X256915300Y-42551500I0J225000D01*
G01*
G37*
G36*
G01*
X260065300Y-42551500D02*
X260065300Y-42051500D01*
G75*
G02*
X260290300Y-41826500I225000J0D01*
G01*
X260740300Y-41826500D01*
G75*
G02*
X260965300Y-42051500I0J-225000D01*
G01*
X260965300Y-42551500D01*
G75*
G02*
X260740300Y-42776500I-225000J0D01*
G01*
X260290300Y-42776500D01*
G75*
G02*
X260065300Y-42551500I0J225000D01*
G01*
G37*
%TD*%
%TO.C,D21*%
G36*
G01*
X158915300Y-140521500D02*
X158915300Y-140021500D01*
G75*
G02*
X159140300Y-139796500I225000J0D01*
G01*
X159590300Y-139796500D01*
G75*
G02*
X159815300Y-140021500I0J-225000D01*
G01*
X159815300Y-140521500D01*
G75*
G02*
X159590300Y-140746500I-225000J0D01*
G01*
X159140300Y-140746500D01*
G75*
G02*
X158915300Y-140521500I0J225000D01*
G01*
G37*
G36*
G01*
X162065300Y-140521500D02*
X162065300Y-140021500D01*
G75*
G02*
X162290300Y-139796500I225000J0D01*
G01*
X162740300Y-139796500D01*
G75*
G02*
X162965300Y-140021500I0J-225000D01*
G01*
X162965300Y-140521500D01*
G75*
G02*
X162740300Y-140746500I-225000J0D01*
G01*
X162290300Y-140746500D01*
G75*
G02*
X162065300Y-140521500I0J225000D01*
G01*
G37*
%TD*%
%TO.C,D20*%
G36*
G01*
X256915300Y-44501500D02*
X256915300Y-44001500D01*
G75*
G02*
X257140300Y-43776500I225000J0D01*
G01*
X257590300Y-43776500D01*
G75*
G02*
X257815300Y-44001500I0J-225000D01*
G01*
X257815300Y-44501500D01*
G75*
G02*
X257590300Y-44726500I-225000J0D01*
G01*
X257140300Y-44726500D01*
G75*
G02*
X256915300Y-44501500I0J225000D01*
G01*
G37*
G36*
G01*
X260065300Y-44501500D02*
X260065300Y-44001500D01*
G75*
G02*
X260290300Y-43776500I225000J0D01*
G01*
X260740300Y-43776500D01*
G75*
G02*
X260965300Y-44001500I0J-225000D01*
G01*
X260965300Y-44501500D01*
G75*
G02*
X260740300Y-44726500I-225000J0D01*
G01*
X260290300Y-44726500D01*
G75*
G02*
X260065300Y-44501500I0J225000D01*
G01*
G37*
%TD*%
%TO.C,D19*%
G36*
G01*
X174065300Y-138571500D02*
X174065300Y-138071500D01*
G75*
G02*
X174290300Y-137846500I225000J0D01*
G01*
X174740300Y-137846500D01*
G75*
G02*
X174965300Y-138071500I0J-225000D01*
G01*
X174965300Y-138571500D01*
G75*
G02*
X174740300Y-138796500I-225000J0D01*
G01*
X174290300Y-138796500D01*
G75*
G02*
X174065300Y-138571500I0J225000D01*
G01*
G37*
G36*
G01*
X177215300Y-138571500D02*
X177215300Y-138071500D01*
G75*
G02*
X177440300Y-137846500I225000J0D01*
G01*
X177890300Y-137846500D01*
G75*
G02*
X178115300Y-138071500I0J-225000D01*
G01*
X178115300Y-138571500D01*
G75*
G02*
X177890300Y-138796500I-225000J0D01*
G01*
X177440300Y-138796500D01*
G75*
G02*
X177215300Y-138571500I0J225000D01*
G01*
G37*
%TD*%
%TO.C,D18*%
G36*
G01*
X256915300Y-46451500D02*
X256915300Y-45951500D01*
G75*
G02*
X257140300Y-45726500I225000J0D01*
G01*
X257590300Y-45726500D01*
G75*
G02*
X257815300Y-45951500I0J-225000D01*
G01*
X257815300Y-46451500D01*
G75*
G02*
X257590300Y-46676500I-225000J0D01*
G01*
X257140300Y-46676500D01*
G75*
G02*
X256915300Y-46451500I0J225000D01*
G01*
G37*
G36*
G01*
X260065300Y-46451500D02*
X260065300Y-45951500D01*
G75*
G02*
X260290300Y-45726500I225000J0D01*
G01*
X260740300Y-45726500D01*
G75*
G02*
X260965300Y-45951500I0J-225000D01*
G01*
X260965300Y-46451500D01*
G75*
G02*
X260740300Y-46676500I-225000J0D01*
G01*
X260290300Y-46676500D01*
G75*
G02*
X260065300Y-46451500I0J225000D01*
G01*
G37*
%TD*%
%TO.C,D17*%
G36*
G01*
X256915300Y-56201500D02*
X256915300Y-55701500D01*
G75*
G02*
X257140300Y-55476500I225000J0D01*
G01*
X257590300Y-55476500D01*
G75*
G02*
X257815300Y-55701500I0J-225000D01*
G01*
X257815300Y-56201500D01*
G75*
G02*
X257590300Y-56426500I-225000J0D01*
G01*
X257140300Y-56426500D01*
G75*
G02*
X256915300Y-56201500I0J225000D01*
G01*
G37*
G36*
G01*
X260065300Y-56201500D02*
X260065300Y-55701500D01*
G75*
G02*
X260290300Y-55476500I225000J0D01*
G01*
X260740300Y-55476500D01*
G75*
G02*
X260965300Y-55701500I0J-225000D01*
G01*
X260965300Y-56201500D01*
G75*
G02*
X260740300Y-56426500I-225000J0D01*
G01*
X260290300Y-56426500D01*
G75*
G02*
X260065300Y-56201500I0J225000D01*
G01*
G37*
%TD*%
%TO.C,D16*%
G36*
G01*
X138715300Y-138571500D02*
X138715300Y-138071500D01*
G75*
G02*
X138940300Y-137846500I225000J0D01*
G01*
X139390300Y-137846500D01*
G75*
G02*
X139615300Y-138071500I0J-225000D01*
G01*
X139615300Y-138571500D01*
G75*
G02*
X139390300Y-138796500I-225000J0D01*
G01*
X138940300Y-138796500D01*
G75*
G02*
X138715300Y-138571500I0J225000D01*
G01*
G37*
G36*
G01*
X141865300Y-138571500D02*
X141865300Y-138071500D01*
G75*
G02*
X142090300Y-137846500I225000J0D01*
G01*
X142540300Y-137846500D01*
G75*
G02*
X142765300Y-138071500I0J-225000D01*
G01*
X142765300Y-138571500D01*
G75*
G02*
X142540300Y-138796500I-225000J0D01*
G01*
X142090300Y-138796500D01*
G75*
G02*
X141865300Y-138571500I0J225000D01*
G01*
G37*
%TD*%
%TO.C,D15*%
G36*
G01*
X169015300Y-140521500D02*
X169015300Y-140021500D01*
G75*
G02*
X169240300Y-139796500I225000J0D01*
G01*
X169690300Y-139796500D01*
G75*
G02*
X169915300Y-140021500I0J-225000D01*
G01*
X169915300Y-140521500D01*
G75*
G02*
X169690300Y-140746500I-225000J0D01*
G01*
X169240300Y-140746500D01*
G75*
G02*
X169015300Y-140521500I0J225000D01*
G01*
G37*
G36*
G01*
X172165300Y-140521500D02*
X172165300Y-140021500D01*
G75*
G02*
X172390300Y-139796500I225000J0D01*
G01*
X172840300Y-139796500D01*
G75*
G02*
X173065300Y-140021500I0J-225000D01*
G01*
X173065300Y-140521500D01*
G75*
G02*
X172840300Y-140746500I-225000J0D01*
G01*
X172390300Y-140746500D01*
G75*
G02*
X172165300Y-140521500I0J225000D01*
G01*
G37*
%TD*%
%TO.C,D14*%
G36*
G01*
X163965300Y-140521500D02*
X163965300Y-140021500D01*
G75*
G02*
X164190300Y-139796500I225000J0D01*
G01*
X164640300Y-139796500D01*
G75*
G02*
X164865300Y-140021500I0J-225000D01*
G01*
X164865300Y-140521500D01*
G75*
G02*
X164640300Y-140746500I-225000J0D01*
G01*
X164190300Y-140746500D01*
G75*
G02*
X163965300Y-140521500I0J225000D01*
G01*
G37*
G36*
G01*
X167115300Y-140521500D02*
X167115300Y-140021500D01*
G75*
G02*
X167340300Y-139796500I225000J0D01*
G01*
X167790300Y-139796500D01*
G75*
G02*
X168015300Y-140021500I0J-225000D01*
G01*
X168015300Y-140521500D01*
G75*
G02*
X167790300Y-140746500I-225000J0D01*
G01*
X167340300Y-140746500D01*
G75*
G02*
X167115300Y-140521500I0J225000D01*
G01*
G37*
%TD*%
%TO.C,D13*%
G36*
G01*
X169015300Y-138571500D02*
X169015300Y-138071500D01*
G75*
G02*
X169240300Y-137846500I225000J0D01*
G01*
X169690300Y-137846500D01*
G75*
G02*
X169915300Y-138071500I0J-225000D01*
G01*
X169915300Y-138571500D01*
G75*
G02*
X169690300Y-138796500I-225000J0D01*
G01*
X169240300Y-138796500D01*
G75*
G02*
X169015300Y-138571500I0J225000D01*
G01*
G37*
G36*
G01*
X172165300Y-138571500D02*
X172165300Y-138071500D01*
G75*
G02*
X172390300Y-137846500I225000J0D01*
G01*
X172840300Y-137846500D01*
G75*
G02*
X173065300Y-138071500I0J-225000D01*
G01*
X173065300Y-138571500D01*
G75*
G02*
X172840300Y-138796500I-225000J0D01*
G01*
X172390300Y-138796500D01*
G75*
G02*
X172165300Y-138571500I0J225000D01*
G01*
G37*
%TD*%
%TO.C,D12*%
G36*
G01*
X163965300Y-138571500D02*
X163965300Y-138071500D01*
G75*
G02*
X164190300Y-137846500I225000J0D01*
G01*
X164640300Y-137846500D01*
G75*
G02*
X164865300Y-138071500I0J-225000D01*
G01*
X164865300Y-138571500D01*
G75*
G02*
X164640300Y-138796500I-225000J0D01*
G01*
X164190300Y-138796500D01*
G75*
G02*
X163965300Y-138571500I0J225000D01*
G01*
G37*
G36*
G01*
X167115300Y-138571500D02*
X167115300Y-138071500D01*
G75*
G02*
X167340300Y-137846500I225000J0D01*
G01*
X167790300Y-137846500D01*
G75*
G02*
X168015300Y-138071500I0J-225000D01*
G01*
X168015300Y-138571500D01*
G75*
G02*
X167790300Y-138796500I-225000J0D01*
G01*
X167340300Y-138796500D01*
G75*
G02*
X167115300Y-138571500I0J225000D01*
G01*
G37*
%TD*%
%TO.C,D11*%
G36*
G01*
X256915300Y-52301500D02*
X256915300Y-51801500D01*
G75*
G02*
X257140300Y-51576500I225000J0D01*
G01*
X257590300Y-51576500D01*
G75*
G02*
X257815300Y-51801500I0J-225000D01*
G01*
X257815300Y-52301500D01*
G75*
G02*
X257590300Y-52526500I-225000J0D01*
G01*
X257140300Y-52526500D01*
G75*
G02*
X256915300Y-52301500I0J225000D01*
G01*
G37*
G36*
G01*
X260065300Y-52301500D02*
X260065300Y-51801500D01*
G75*
G02*
X260290300Y-51576500I225000J0D01*
G01*
X260740300Y-51576500D01*
G75*
G02*
X260965300Y-51801500I0J-225000D01*
G01*
X260965300Y-52301500D01*
G75*
G02*
X260740300Y-52526500I-225000J0D01*
G01*
X260290300Y-52526500D01*
G75*
G02*
X260065300Y-52301500I0J225000D01*
G01*
G37*
%TD*%
%TO.C,D10*%
G36*
G01*
X256915300Y-50351500D02*
X256915300Y-49851500D01*
G75*
G02*
X257140300Y-49626500I225000J0D01*
G01*
X257590300Y-49626500D01*
G75*
G02*
X257815300Y-49851500I0J-225000D01*
G01*
X257815300Y-50351500D01*
G75*
G02*
X257590300Y-50576500I-225000J0D01*
G01*
X257140300Y-50576500D01*
G75*
G02*
X256915300Y-50351500I0J225000D01*
G01*
G37*
G36*
G01*
X260065300Y-50351500D02*
X260065300Y-49851500D01*
G75*
G02*
X260290300Y-49626500I225000J0D01*
G01*
X260740300Y-49626500D01*
G75*
G02*
X260965300Y-49851500I0J-225000D01*
G01*
X260965300Y-50351500D01*
G75*
G02*
X260740300Y-50576500I-225000J0D01*
G01*
X260290300Y-50576500D01*
G75*
G02*
X260065300Y-50351500I0J225000D01*
G01*
G37*
%TD*%
%TO.C,D9*%
G36*
G01*
X133665300Y-140521500D02*
X133665300Y-140021500D01*
G75*
G02*
X133890300Y-139796500I225000J0D01*
G01*
X134340300Y-139796500D01*
G75*
G02*
X134565300Y-140021500I0J-225000D01*
G01*
X134565300Y-140521500D01*
G75*
G02*
X134340300Y-140746500I-225000J0D01*
G01*
X133890300Y-140746500D01*
G75*
G02*
X133665300Y-140521500I0J225000D01*
G01*
G37*
G36*
G01*
X136815300Y-140521500D02*
X136815300Y-140021500D01*
G75*
G02*
X137040300Y-139796500I225000J0D01*
G01*
X137490300Y-139796500D01*
G75*
G02*
X137715300Y-140021500I0J-225000D01*
G01*
X137715300Y-140521500D01*
G75*
G02*
X137490300Y-140746500I-225000J0D01*
G01*
X137040300Y-140746500D01*
G75*
G02*
X136815300Y-140521500I0J225000D01*
G01*
G37*
%TD*%
%TO.C,D8*%
G36*
G01*
X256915300Y-48401500D02*
X256915300Y-47901500D01*
G75*
G02*
X257140300Y-47676500I225000J0D01*
G01*
X257590300Y-47676500D01*
G75*
G02*
X257815300Y-47901500I0J-225000D01*
G01*
X257815300Y-48401500D01*
G75*
G02*
X257590300Y-48626500I-225000J0D01*
G01*
X257140300Y-48626500D01*
G75*
G02*
X256915300Y-48401500I0J225000D01*
G01*
G37*
G36*
G01*
X260065300Y-48401500D02*
X260065300Y-47901500D01*
G75*
G02*
X260290300Y-47676500I225000J0D01*
G01*
X260740300Y-47676500D01*
G75*
G02*
X260965300Y-47901500I0J-225000D01*
G01*
X260965300Y-48401500D01*
G75*
G02*
X260740300Y-48626500I-225000J0D01*
G01*
X260290300Y-48626500D01*
G75*
G02*
X260065300Y-48401500I0J225000D01*
G01*
G37*
%TD*%
%TO.C,D7*%
G36*
G01*
X113465300Y-140521500D02*
X113465300Y-140021500D01*
G75*
G02*
X113690300Y-139796500I225000J0D01*
G01*
X114140300Y-139796500D01*
G75*
G02*
X114365300Y-140021500I0J-225000D01*
G01*
X114365300Y-140521500D01*
G75*
G02*
X114140300Y-140746500I-225000J0D01*
G01*
X113690300Y-140746500D01*
G75*
G02*
X113465300Y-140521500I0J225000D01*
G01*
G37*
G36*
G01*
X116615300Y-140521500D02*
X116615300Y-140021500D01*
G75*
G02*
X116840300Y-139796500I225000J0D01*
G01*
X117290300Y-139796500D01*
G75*
G02*
X117515300Y-140021500I0J-225000D01*
G01*
X117515300Y-140521500D01*
G75*
G02*
X117290300Y-140746500I-225000J0D01*
G01*
X116840300Y-140746500D01*
G75*
G02*
X116615300Y-140521500I0J225000D01*
G01*
G37*
%TD*%
%TO.C,D6*%
G36*
G01*
X113465300Y-138571500D02*
X113465300Y-138071500D01*
G75*
G02*
X113690300Y-137846500I225000J0D01*
G01*
X114140300Y-137846500D01*
G75*
G02*
X114365300Y-138071500I0J-225000D01*
G01*
X114365300Y-138571500D01*
G75*
G02*
X114140300Y-138796500I-225000J0D01*
G01*
X113690300Y-138796500D01*
G75*
G02*
X113465300Y-138571500I0J225000D01*
G01*
G37*
G36*
G01*
X116615300Y-138571500D02*
X116615300Y-138071500D01*
G75*
G02*
X116840300Y-137846500I225000J0D01*
G01*
X117290300Y-137846500D01*
G75*
G02*
X117515300Y-138071500I0J-225000D01*
G01*
X117515300Y-138571500D01*
G75*
G02*
X117290300Y-138796500I-225000J0D01*
G01*
X116840300Y-138796500D01*
G75*
G02*
X116615300Y-138571500I0J225000D01*
G01*
G37*
%TD*%
%TO.C,D5*%
G36*
G01*
X108415300Y-138571500D02*
X108415300Y-138071500D01*
G75*
G02*
X108640300Y-137846500I225000J0D01*
G01*
X109090300Y-137846500D01*
G75*
G02*
X109315300Y-138071500I0J-225000D01*
G01*
X109315300Y-138571500D01*
G75*
G02*
X109090300Y-138796500I-225000J0D01*
G01*
X108640300Y-138796500D01*
G75*
G02*
X108415300Y-138571500I0J225000D01*
G01*
G37*
G36*
G01*
X111565300Y-138571500D02*
X111565300Y-138071500D01*
G75*
G02*
X111790300Y-137846500I225000J0D01*
G01*
X112240300Y-137846500D01*
G75*
G02*
X112465300Y-138071500I0J-225000D01*
G01*
X112465300Y-138571500D01*
G75*
G02*
X112240300Y-138796500I-225000J0D01*
G01*
X111790300Y-138796500D01*
G75*
G02*
X111565300Y-138571500I0J225000D01*
G01*
G37*
%TD*%
%TO.C,D4*%
G36*
G01*
X108415300Y-140521500D02*
X108415300Y-140021500D01*
G75*
G02*
X108640300Y-139796500I225000J0D01*
G01*
X109090300Y-139796500D01*
G75*
G02*
X109315300Y-140021500I0J-225000D01*
G01*
X109315300Y-140521500D01*
G75*
G02*
X109090300Y-140746500I-225000J0D01*
G01*
X108640300Y-140746500D01*
G75*
G02*
X108415300Y-140521500I0J225000D01*
G01*
G37*
G36*
G01*
X111565300Y-140521500D02*
X111565300Y-140021500D01*
G75*
G02*
X111790300Y-139796500I225000J0D01*
G01*
X112240300Y-139796500D01*
G75*
G02*
X112465300Y-140021500I0J-225000D01*
G01*
X112465300Y-140521500D01*
G75*
G02*
X112240300Y-140746500I-225000J0D01*
G01*
X111790300Y-140746500D01*
G75*
G02*
X111565300Y-140521500I0J225000D01*
G01*
G37*
%TD*%
%TO.C,D3*%
G36*
G01*
X118515300Y-140521500D02*
X118515300Y-140021500D01*
G75*
G02*
X118740300Y-139796500I225000J0D01*
G01*
X119190300Y-139796500D01*
G75*
G02*
X119415300Y-140021500I0J-225000D01*
G01*
X119415300Y-140521500D01*
G75*
G02*
X119190300Y-140746500I-225000J0D01*
G01*
X118740300Y-140746500D01*
G75*
G02*
X118515300Y-140521500I0J225000D01*
G01*
G37*
G36*
G01*
X121665300Y-140521500D02*
X121665300Y-140021500D01*
G75*
G02*
X121890300Y-139796500I225000J0D01*
G01*
X122340300Y-139796500D01*
G75*
G02*
X122565300Y-140021500I0J-225000D01*
G01*
X122565300Y-140521500D01*
G75*
G02*
X122340300Y-140746500I-225000J0D01*
G01*
X121890300Y-140746500D01*
G75*
G02*
X121665300Y-140521500I0J225000D01*
G01*
G37*
%TD*%
%TO.C,D2*%
G36*
G01*
X123565300Y-138571500D02*
X123565300Y-138071500D01*
G75*
G02*
X123790300Y-137846500I225000J0D01*
G01*
X124240300Y-137846500D01*
G75*
G02*
X124465300Y-138071500I0J-225000D01*
G01*
X124465300Y-138571500D01*
G75*
G02*
X124240300Y-138796500I-225000J0D01*
G01*
X123790300Y-138796500D01*
G75*
G02*
X123565300Y-138571500I0J225000D01*
G01*
G37*
G36*
G01*
X126715300Y-138571500D02*
X126715300Y-138071500D01*
G75*
G02*
X126940300Y-137846500I225000J0D01*
G01*
X127390300Y-137846500D01*
G75*
G02*
X127615300Y-138071500I0J-225000D01*
G01*
X127615300Y-138571500D01*
G75*
G02*
X127390300Y-138796500I-225000J0D01*
G01*
X126940300Y-138796500D01*
G75*
G02*
X126715300Y-138571500I0J225000D01*
G01*
G37*
%TD*%
%TO.C,D1*%
G36*
G01*
X123565300Y-140521500D02*
X123565300Y-140021500D01*
G75*
G02*
X123790300Y-139796500I225000J0D01*
G01*
X124240300Y-139796500D01*
G75*
G02*
X124465300Y-140021500I0J-225000D01*
G01*
X124465300Y-140521500D01*
G75*
G02*
X124240300Y-140746500I-225000J0D01*
G01*
X123790300Y-140746500D01*
G75*
G02*
X123565300Y-140521500I0J225000D01*
G01*
G37*
G36*
G01*
X126715300Y-140521500D02*
X126715300Y-140021500D01*
G75*
G02*
X126940300Y-139796500I225000J0D01*
G01*
X127390300Y-139796500D01*
G75*
G02*
X127615300Y-140021500I0J-225000D01*
G01*
X127615300Y-140521500D01*
G75*
G02*
X127390300Y-140746500I-225000J0D01*
G01*
X126940300Y-140746500D01*
G75*
G02*
X126715300Y-140521500I0J225000D01*
G01*
G37*
%TD*%
M02*
