%TF.GenerationSoftware,KiCad,Pcbnew,(5.1.10)-1*%
%TF.CreationDate,2021-08-10T22:37:01+09:00*%
%TF.ProjectId,Ultramarine_fuse,556c7472-616d-4617-9269-6e655f667573,rev?*%
%TF.SameCoordinates,Original*%
%TF.FileFunction,Copper,L2,Bot*%
%TF.FilePolarity,Positive*%
%FSLAX46Y46*%
G04 Gerber Fmt 4.6, Leading zero omitted, Abs format (unit mm)*
G04 Created by KiCad (PCBNEW (5.1.10)-1) date 2021-08-10 22:37:01*
%MOMM*%
%LPD*%
G01*
G04 APERTURE LIST*
%TA.AperFunction,SMDPad,CuDef*%
%ADD10R,1.600000X1.000000*%
%TD*%
%TA.AperFunction,ComponentPad*%
%ADD11C,1.524000*%
%TD*%
%TA.AperFunction,ComponentPad*%
%ADD12C,1.700000*%
%TD*%
%TA.AperFunction,ComponentPad*%
%ADD13C,2.200000*%
%TD*%
%TA.AperFunction,ComponentPad*%
%ADD14O,1.000000X1.800000*%
%TD*%
%TA.AperFunction,ComponentPad*%
%ADD15O,1.700000X1.700000*%
%TD*%
%TA.AperFunction,ComponentPad*%
%ADD16R,1.700000X1.700000*%
%TD*%
G04 APERTURE END LIST*
D10*
%TO.P,U36,4*%
%TO.N,+5V*%
X224515300Y-90326501D03*
%TO.P,U36,3*%
%TO.N,Net-(U29-Pad1)*%
X224515300Y-92326501D03*
%TO.P,U36,2*%
%TO.N,Net-(U36-Pad2)*%
X219715300Y-92326501D03*
%TO.P,U36,1*%
%TO.N,Net-(U35-Pad3)*%
X219715300Y-90326501D03*
%TD*%
%TO.P,U35,4*%
%TO.N,+5V*%
X231915300Y-84806501D03*
%TO.P,U35,3*%
%TO.N,Net-(U35-Pad3)*%
X231915300Y-86806501D03*
%TO.P,U35,2*%
%TO.N,Net-(U35-Pad2)*%
X227115300Y-86806501D03*
%TO.P,U35,1*%
%TO.N,Net-(U34-Pad3)*%
X227115300Y-84806501D03*
%TD*%
%TO.P,U34,4*%
%TO.N,+5V*%
X205415300Y-115486501D03*
%TO.P,U34,3*%
%TO.N,Net-(U34-Pad3)*%
X205415300Y-117486501D03*
%TO.P,U34,2*%
%TO.N,Net-(U34-Pad2)*%
X200615300Y-117486501D03*
%TO.P,U34,1*%
%TO.N,Net-(U33-Pad3)*%
X200615300Y-115486501D03*
%TD*%
%TO.P,U33,4*%
%TO.N,+5V*%
X224515300Y-84806501D03*
%TO.P,U33,3*%
%TO.N,Net-(U33-Pad3)*%
X224515300Y-86806501D03*
%TO.P,U33,2*%
%TO.N,Net-(U33-Pad2)*%
X219715300Y-86806501D03*
%TO.P,U33,1*%
%TO.N,Net-(U32-Pad3)*%
X219715300Y-84806501D03*
%TD*%
%TO.P,U32,4*%
%TO.N,+5V*%
X231915300Y-79286501D03*
%TO.P,U32,3*%
%TO.N,Net-(U32-Pad3)*%
X231915300Y-81286501D03*
%TO.P,U32,2*%
%TO.N,Net-(U32-Pad2)*%
X227115300Y-81286501D03*
%TO.P,U32,1*%
%TO.N,Net-(U31-Pad3)*%
X227115300Y-79286501D03*
%TD*%
%TO.P,U31,4*%
%TO.N,+5V*%
X243615300Y-66706501D03*
%TO.P,U31,3*%
%TO.N,Net-(U31-Pad3)*%
X243615300Y-68706501D03*
%TO.P,U31,2*%
%TO.N,Net-(U31-Pad2)*%
X238815300Y-68706501D03*
%TO.P,U31,1*%
%TO.N,Net-(U30-Pad3)*%
X238815300Y-66706501D03*
%TD*%
%TO.P,U30,4*%
%TO.N,+5V*%
X251015300Y-61186501D03*
%TO.P,U30,3*%
%TO.N,Net-(U30-Pad3)*%
X251015300Y-63186501D03*
%TO.P,U30,2*%
%TO.N,GND*%
X246215300Y-63186501D03*
%TO.P,U30,1*%
%TO.N,Net-(U30-Pad1)*%
X246215300Y-61186501D03*
%TD*%
%TO.P,U29,4*%
%TO.N,Net-(U29-Pad4)*%
X224515300Y-101366501D03*
%TO.P,U29,3*%
%TO.N,Net-(U28-Pad1)*%
X224515300Y-103366501D03*
%TO.P,U29,2*%
%TO.N,Net-(U29-Pad2)*%
X219715300Y-103366501D03*
%TO.P,U29,1*%
%TO.N,Net-(U29-Pad1)*%
X219715300Y-101366501D03*
%TD*%
%TO.P,U28,4*%
%TO.N,Net-(U28-Pad4)*%
X189315300Y-133586501D03*
%TO.P,U28,3*%
%TO.N,Net-(U27-Pad1)*%
X189315300Y-135586501D03*
%TO.P,U28,2*%
%TO.N,Net-(U28-Pad2)*%
X184515300Y-135586501D03*
%TO.P,U28,1*%
%TO.N,Net-(U28-Pad1)*%
X184515300Y-133586501D03*
%TD*%
%TO.P,U27,4*%
%TO.N,Net-(U27-Pad4)*%
X258415300Y-66706501D03*
%TO.P,U27,3*%
%TO.N,Net-(U26-Pad1)*%
X258415300Y-68706501D03*
%TO.P,U27,2*%
%TO.N,Net-(U27-Pad2)*%
X253615300Y-68706501D03*
%TO.P,U27,1*%
%TO.N,Net-(U27-Pad1)*%
X253615300Y-66706501D03*
%TD*%
%TO.P,U26,4*%
%TO.N,Net-(U26-Pad4)*%
X251015300Y-72226501D03*
%TO.P,U26,3*%
%TO.N,Net-(U25-Pad1)*%
X251015300Y-74226501D03*
%TO.P,U26,2*%
%TO.N,Net-(U26-Pad2)*%
X246215300Y-74226501D03*
%TO.P,U26,1*%
%TO.N,Net-(U26-Pad1)*%
X246215300Y-72226501D03*
%TD*%
%TO.P,U25,4*%
%TO.N,Net-(U25-Pad4)*%
X246715300Y-77746501D03*
%TO.P,U25,3*%
%TO.N,Net-(U24-Pad1)*%
X246715300Y-79746501D03*
%TO.P,U25,2*%
%TO.N,Net-(U25-Pad2)*%
X241915300Y-79746501D03*
%TO.P,U25,1*%
%TO.N,Net-(U25-Pad1)*%
X241915300Y-77746501D03*
%TD*%
%TO.P,U24,4*%
%TO.N,Net-(U24-Pad4)*%
X239315300Y-84806501D03*
%TO.P,U24,3*%
%TO.N,Net-(U23-Pad1)*%
X239315300Y-86806501D03*
%TO.P,U24,2*%
%TO.N,Net-(U24-Pad2)*%
X234515300Y-86806501D03*
%TO.P,U24,1*%
%TO.N,Net-(U24-Pad1)*%
X234515300Y-84806501D03*
%TD*%
%TO.P,U23,4*%
%TO.N,Net-(U23-Pad4)*%
X231915300Y-90326501D03*
%TO.P,U23,3*%
%TO.N,Net-(U16-Pad1)*%
X231915300Y-92326501D03*
%TO.P,U23,2*%
%TO.N,Net-(U23-Pad2)*%
X227115300Y-92326501D03*
%TO.P,U23,1*%
%TO.N,Net-(U23-Pad1)*%
X227115300Y-90326501D03*
%TD*%
%TO.P,U22,4*%
%TO.N,+5V*%
X239315300Y-79286501D03*
%TO.P,U22,3*%
%TO.N,Net-(U15-Pad1)*%
X239315300Y-81286501D03*
%TO.P,U22,2*%
%TO.N,GND*%
X234515300Y-81286501D03*
%TO.P,U22,1*%
%TO.N,Net-(U21-Pad3)*%
X234515300Y-79286501D03*
%TD*%
%TO.P,U21,4*%
%TO.N,+5V*%
X212815300Y-115486501D03*
%TO.P,U21,3*%
%TO.N,Net-(U21-Pad3)*%
X212815300Y-117486501D03*
%TO.P,U21,2*%
%TO.N,GND*%
X208015300Y-117486501D03*
%TO.P,U21,1*%
%TO.N,Net-(U20-Pad3)*%
X208015300Y-115486501D03*
%TD*%
%TO.P,U20,4*%
%TO.N,+5V*%
X231915300Y-95846501D03*
%TO.P,U20,3*%
%TO.N,Net-(U20-Pad3)*%
X231915300Y-97846501D03*
%TO.P,U20,2*%
%TO.N,GND*%
X227115300Y-97846501D03*
%TO.P,U20,1*%
%TO.N,Net-(U19-Pad3)*%
X227115300Y-95846501D03*
%TD*%
%TO.P,U19,4*%
%TO.N,+5V*%
X174515300Y-133586501D03*
%TO.P,U19,3*%
%TO.N,Net-(U19-Pad3)*%
X174515300Y-135586501D03*
%TO.P,U19,2*%
%TO.N,GND*%
X169715300Y-135586501D03*
%TO.P,U19,1*%
%TO.N,Net-(U18-Pad3)*%
X169715300Y-133586501D03*
%TD*%
%TO.P,U18,4*%
%TO.N,+5V*%
X205415300Y-121006501D03*
%TO.P,U18,3*%
%TO.N,Net-(U18-Pad3)*%
X205415300Y-123006501D03*
%TO.P,U18,2*%
%TO.N,GND*%
X200615300Y-123006501D03*
%TO.P,U18,1*%
%TO.N,Net-(U17-Pad3)*%
X200615300Y-121006501D03*
%TD*%
%TO.P,U17,4*%
%TO.N,+5V*%
X106615300Y-136286501D03*
%TO.P,U17,3*%
%TO.N,Net-(U17-Pad3)*%
X106615300Y-138286501D03*
%TO.P,U17,2*%
%TO.N,GND*%
X101815300Y-138286501D03*
%TO.P,U17,1*%
%TO.N,Net-(U16-Pad3)*%
X101815300Y-136286501D03*
%TD*%
%TO.P,U16,4*%
%TO.N,+5V*%
X115315300Y-133586501D03*
%TO.P,U16,3*%
%TO.N,Net-(U16-Pad3)*%
X115315300Y-135586501D03*
%TO.P,U16,2*%
%TO.N,GND*%
X110515300Y-135586501D03*
%TO.P,U16,1*%
%TO.N,Net-(U16-Pad1)*%
X110515300Y-133586501D03*
%TD*%
%TO.P,U15,4*%
%TO.N,Net-(U15-Pad4)*%
X122715300Y-133586501D03*
%TO.P,U15,3*%
%TO.N,Net-(U14-Pad1)*%
X122715300Y-135586501D03*
%TO.P,U15,2*%
%TO.N,Net-(U15-Pad2)*%
X117915300Y-135586501D03*
%TO.P,U15,1*%
%TO.N,Net-(U15-Pad1)*%
X117915300Y-133586501D03*
%TD*%
%TO.P,U14,4*%
%TO.N,Net-(U14-Pad4)*%
X137515300Y-133586501D03*
%TO.P,U14,3*%
%TO.N,Net-(U13-Pad1)*%
X137515300Y-135586501D03*
%TO.P,U14,2*%
%TO.N,Net-(U14-Pad2)*%
X132715300Y-135586501D03*
%TO.P,U14,1*%
%TO.N,Net-(U14-Pad1)*%
X132715300Y-133586501D03*
%TD*%
%TO.P,U13,4*%
%TO.N,Net-(U13-Pad4)*%
X144915300Y-133586501D03*
%TO.P,U13,3*%
%TO.N,Net-(U12-Pad1)*%
X144915300Y-135586501D03*
%TO.P,U13,2*%
%TO.N,Net-(U13-Pad2)*%
X140115300Y-135586501D03*
%TO.P,U13,1*%
%TO.N,Net-(U13-Pad1)*%
X140115300Y-133586501D03*
%TD*%
%TO.P,U12,4*%
%TO.N,Net-(U12-Pad4)*%
X152315300Y-133586501D03*
%TO.P,U12,3*%
%TO.N,Net-(U11-Pad1)*%
X152315300Y-135586501D03*
%TO.P,U12,2*%
%TO.N,Net-(U12-Pad2)*%
X147515300Y-135586501D03*
%TO.P,U12,1*%
%TO.N,Net-(U12-Pad1)*%
X147515300Y-133586501D03*
%TD*%
%TO.P,U11,4*%
%TO.N,Net-(U11-Pad4)*%
X159715300Y-133586501D03*
%TO.P,U11,3*%
%TO.N,Net-(U10-Pad1)*%
X159715300Y-135586501D03*
%TO.P,U11,2*%
%TO.N,Net-(U11-Pad2)*%
X154915300Y-135586501D03*
%TO.P,U11,1*%
%TO.N,Net-(U11-Pad1)*%
X154915300Y-133586501D03*
%TD*%
%TO.P,U10,4*%
%TO.N,Net-(U10-Pad4)*%
X167115300Y-133586501D03*
%TO.P,U10,3*%
%TO.N,Net-(U10-Pad3)*%
X167115300Y-135586501D03*
%TO.P,U10,2*%
%TO.N,Net-(U10-Pad2)*%
X162315300Y-135586501D03*
%TO.P,U10,1*%
%TO.N,Net-(U10-Pad1)*%
X162315300Y-133586501D03*
%TD*%
%TO.P,U9,4*%
%TO.N,+5V*%
X224515300Y-79286501D03*
%TO.P,U9,3*%
%TO.N,Net-(U2-Pad1)*%
X224515300Y-81286501D03*
%TO.P,U9,2*%
%TO.N,GND*%
X219715300Y-81286501D03*
%TO.P,U9,1*%
%TO.N,Net-(U10-Pad3)*%
X219715300Y-79286501D03*
%TD*%
%TO.P,U8,4*%
%TO.N,+5V*%
X243615300Y-61186501D03*
%TO.P,U8,3*%
%TO.N,/LED*%
X243615300Y-63186501D03*
%TO.P,U8,2*%
%TO.N,GND*%
X238815300Y-63186501D03*
%TO.P,U8,1*%
%TO.N,Net-(U7-Pad3)*%
X238815300Y-61186501D03*
%TD*%
%TO.P,U7,4*%
%TO.N,Net-(U7-Pad4)*%
X251015300Y-66706501D03*
%TO.P,U7,3*%
%TO.N,Net-(U7-Pad3)*%
X251015300Y-68706501D03*
%TO.P,U7,2*%
%TO.N,GND*%
X246215300Y-68706501D03*
%TO.P,U7,1*%
%TO.N,Net-(U6-Pad3)*%
X246215300Y-66706501D03*
%TD*%
%TO.P,U6,4*%
%TO.N,Net-(U6-Pad4)*%
X130115300Y-133586501D03*
%TO.P,U6,3*%
%TO.N,Net-(U6-Pad3)*%
X130115300Y-135586501D03*
%TO.P,U6,2*%
%TO.N,GND*%
X125315300Y-135586501D03*
%TO.P,U6,1*%
%TO.N,Net-(U5-Pad3)*%
X125315300Y-133586501D03*
%TD*%
%TO.P,U5,4*%
%TO.N,Net-(U5-Pad4)*%
X224515300Y-95846501D03*
%TO.P,U5,3*%
%TO.N,Net-(U5-Pad3)*%
X224515300Y-97846501D03*
%TO.P,U5,2*%
%TO.N,GND*%
X219715300Y-97846501D03*
%TO.P,U5,1*%
%TO.N,Net-(U4-Pad3)*%
X219715300Y-95846501D03*
%TD*%
%TO.P,U4,4*%
%TO.N,Net-(U4-Pad4)*%
X181915300Y-133586501D03*
%TO.P,U4,3*%
%TO.N,Net-(U4-Pad3)*%
X181915300Y-135586501D03*
%TO.P,U4,2*%
%TO.N,GND*%
X177115300Y-135586501D03*
%TO.P,U4,1*%
%TO.N,Net-(U3-Pad3)*%
X177115300Y-133586501D03*
%TD*%
%TO.P,U3,4*%
%TO.N,Net-(U3-Pad4)*%
X258415300Y-61186501D03*
%TO.P,U3,3*%
%TO.N,Net-(U3-Pad3)*%
X258415300Y-63186501D03*
%TO.P,U3,2*%
%TO.N,GND*%
X253615300Y-63186501D03*
%TO.P,U3,1*%
%TO.N,Net-(U2-Pad3)*%
X253615300Y-61186501D03*
%TD*%
%TO.P,U2,4*%
%TO.N,+5V*%
X243615300Y-72226501D03*
%TO.P,U2,3*%
%TO.N,Net-(U2-Pad3)*%
X243615300Y-74226501D03*
%TO.P,U2,2*%
%TO.N,GND*%
X238815300Y-74226501D03*
%TO.P,U2,1*%
%TO.N,Net-(U2-Pad1)*%
X238815300Y-72226501D03*
%TD*%
D11*
%TO.P,U1,13*%
%TO.N,Net-(U1-Pad13)*%
X87815301Y-69826501D03*
%TO.P,U1,17*%
%TO.N,/Col3*%
X87815301Y-59666501D03*
%TO.P,U1,22*%
%TO.N,/~RESET*%
X87815301Y-46966501D03*
%TO.P,U1,21*%
%TO.N,+5V*%
X87815301Y-49506501D03*
%TO.P,U1,19*%
%TO.N,/Col1*%
X87815301Y-54586501D03*
%TO.P,U1,24*%
%TO.N,+5V*%
X87815301Y-41886501D03*
%TO.P,U1,16*%
%TO.N,/Col4*%
X87815301Y-62206501D03*
%TO.P,U1,15*%
%TO.N,/Col5*%
X87815301Y-64746501D03*
%TO.P,U1,18*%
%TO.N,/Col2*%
X87815301Y-57126501D03*
%TO.P,U1,14*%
%TO.N,/Col6*%
X87815301Y-67286501D03*
%TO.P,U1,20*%
%TO.N,/Col0*%
X87815301Y-52046501D03*
%TO.P,U1,23*%
%TO.N,GND*%
X87815301Y-44426501D03*
%TO.P,U1,6*%
%TO.N,/SCL*%
X103055301Y-54586501D03*
%TO.P,U1,12*%
%TO.N,Net-(U1-Pad12)*%
X103055301Y-69826501D03*
%TO.P,U1,9*%
%TO.N,/Row2*%
X103055301Y-62206501D03*
%TO.P,U1,8*%
%TO.N,/Row1*%
X103055301Y-59666501D03*
%TO.P,U1,4*%
%TO.N,GND*%
X103055301Y-49506501D03*
%TO.P,U1,5*%
%TO.N,/SDA*%
X103055301Y-52046501D03*
%TO.P,U1,7*%
%TO.N,/Row0*%
X103055301Y-57126501D03*
%TO.P,U1,2*%
%TO.N,/data*%
X103055301Y-44426501D03*
%TO.P,U1,11*%
%TO.N,/Row4*%
X103055301Y-67286501D03*
%TO.P,U1,3*%
%TO.N,GND*%
X103055301Y-46966501D03*
%TO.P,U1,10*%
%TO.N,/Row3*%
X103055301Y-64746501D03*
%TO.P,U1,1*%
%TO.N,/LED*%
X103055301Y-41886501D03*
%TO.P,U1,24*%
%TO.N,+5V*%
X101785301Y-43156501D03*
%TO.P,U1,23*%
%TO.N,GND*%
X101785301Y-45696501D03*
%TO.P,U1,22*%
%TO.N,/~RESET*%
X101785301Y-48236501D03*
%TO.P,U1,21*%
%TO.N,+5V*%
X101785301Y-50776501D03*
%TO.P,U1,20*%
%TO.N,/Col0*%
X101785301Y-53316501D03*
%TO.P,U1,19*%
%TO.N,/Col1*%
X101785301Y-55856501D03*
%TO.P,U1,18*%
%TO.N,/Col2*%
X101785301Y-58396501D03*
%TO.P,U1,17*%
%TO.N,/Col3*%
X101785301Y-60936501D03*
%TO.P,U1,16*%
%TO.N,/Col4*%
X101785301Y-63476501D03*
%TO.P,U1,15*%
%TO.N,/Col5*%
X101785301Y-66016501D03*
%TO.P,U1,14*%
%TO.N,/Col6*%
X101785301Y-68556501D03*
%TO.P,U1,13*%
%TO.N,Net-(U1-Pad13)*%
X101785301Y-71096501D03*
%TO.P,U1,12*%
%TO.N,Net-(U1-Pad12)*%
X86545301Y-71096501D03*
%TO.P,U1,11*%
%TO.N,/Row4*%
X86545301Y-68556501D03*
%TO.P,U1,10*%
%TO.N,/Row3*%
X86545301Y-66016501D03*
%TO.P,U1,9*%
%TO.N,/Row2*%
X86545301Y-63476501D03*
%TO.P,U1,8*%
%TO.N,/Row1*%
X86545301Y-60936501D03*
%TO.P,U1,7*%
%TO.N,/Row0*%
X86545301Y-58396501D03*
%TO.P,U1,6*%
%TO.N,/SCL*%
X86545301Y-55856501D03*
%TO.P,U1,5*%
%TO.N,/SDA*%
X86545301Y-53316501D03*
%TO.P,U1,4*%
%TO.N,GND*%
X86545301Y-50776501D03*
%TO.P,U1,3*%
X86545301Y-48236501D03*
%TO.P,U1,2*%
%TO.N,/data*%
X86545301Y-45696501D03*
%TO.P,U1,1*%
%TO.N,/LED*%
X86545301Y-43156501D03*
%TD*%
D12*
%TO.P,SW36,2*%
%TO.N,/~RESET*%
X107865300Y-133176500D03*
%TO.P,SW36,1*%
%TO.N,GND*%
X101865300Y-133176500D03*
%TD*%
D13*
%TO.P,SW35,2*%
%TO.N,Net-(D35-Pad2)*%
X146565301Y-118976501D03*
X156565301Y-118976501D03*
%TO.P,SW35,1*%
%TO.N,/Col6*%
X151565301Y-116876501D03*
%TD*%
%TO.P,SW34,2*%
%TO.N,Net-(D34-Pad2)*%
X165665301Y-100876501D03*
X175665301Y-100876501D03*
%TO.P,SW34,1*%
%TO.N,/Col5*%
X170665301Y-98776501D03*
%TD*%
%TO.P,SW33,2*%
%TO.N,Net-(D33-Pad2)*%
X184765301Y-82776501D03*
X194765301Y-82776501D03*
%TO.P,SW33,1*%
%TO.N,/Col4*%
X189765301Y-80676501D03*
%TD*%
%TO.P,SW32,2*%
%TO.N,Net-(D32-Pad2)*%
X222765301Y-46576501D03*
X232765301Y-46576501D03*
%TO.P,SW32,1*%
%TO.N,/Col3*%
X227765301Y-44476501D03*
%TD*%
%TO.P,SW31,2*%
%TO.N,Net-(D31-Pad2)*%
X203865301Y-64676501D03*
X213865301Y-64676501D03*
%TO.P,SW31,1*%
%TO.N,/Col2*%
X208865301Y-62576501D03*
%TD*%
%TO.P,SW30,2*%
%TO.N,Net-(D30-Pad2)*%
X203865301Y-100876501D03*
X213865301Y-100876501D03*
%TO.P,SW30,1*%
%TO.N,/Col1*%
X208865301Y-98776501D03*
%TD*%
%TO.P,SW29,2*%
%TO.N,Net-(D29-Pad2)*%
X165665301Y-118976501D03*
X175665301Y-118976501D03*
%TO.P,SW29,1*%
%TO.N,/Col0*%
X170665301Y-116876501D03*
%TD*%
%TO.P,SW28,2*%
%TO.N,Net-(D28-Pad2)*%
X184765301Y-100876501D03*
X194765301Y-100876501D03*
%TO.P,SW28,1*%
%TO.N,Net-(SW28-Pad1)*%
X189765301Y-98776501D03*
%TD*%
%TO.P,SW27,2*%
%TO.N,Net-(D27-Pad2)*%
X108365301Y-100876501D03*
X118365301Y-100876501D03*
%TO.P,SW27,1*%
%TO.N,Net-(SW27-Pad1)*%
X113365301Y-98776501D03*
%TD*%
%TO.P,SW26,2*%
%TO.N,Net-(D26-Pad2)*%
X241865301Y-46576501D03*
X251865301Y-46576501D03*
%TO.P,SW26,1*%
%TO.N,Net-(SW26-Pad1)*%
X246865301Y-44476501D03*
%TD*%
%TO.P,SW25,2*%
%TO.N,Net-(D25-Pad2)*%
X222965301Y-64676501D03*
X232965301Y-64676501D03*
%TO.P,SW25,1*%
%TO.N,Net-(SW25-Pad1)*%
X227965301Y-62576501D03*
%TD*%
%TO.P,SW24,2*%
%TO.N,Net-(D24-Pad2)*%
X165665301Y-82776501D03*
X175665301Y-82776501D03*
%TO.P,SW24,1*%
%TO.N,Net-(SW24-Pad1)*%
X170665301Y-80676501D03*
%TD*%
%TO.P,SW23,2*%
%TO.N,Net-(D23-Pad2)*%
X184765301Y-118976501D03*
X194765301Y-118976501D03*
%TO.P,SW23,1*%
%TO.N,Net-(SW23-Pad1)*%
X189765301Y-116876501D03*
%TD*%
%TO.P,SW22,2*%
%TO.N,Net-(D22-Pad2)*%
X108165301Y-46576501D03*
X118165301Y-46576501D03*
%TO.P,SW22,1*%
%TO.N,Net-(SW22-Pad1)*%
X113165301Y-44476501D03*
%TD*%
%TO.P,SW21,2*%
%TO.N,Net-(D21-Pad2)*%
X89265301Y-96276501D03*
X99265301Y-96276501D03*
%TO.P,SW21,1*%
%TO.N,Net-(SW21-Pad1)*%
X94265301Y-94176501D03*
%TD*%
%TO.P,SW20,2*%
%TO.N,Net-(D20-Pad2)*%
X127265301Y-46576501D03*
X137265301Y-46576501D03*
%TO.P,SW20,1*%
%TO.N,Net-(SW20-Pad1)*%
X132265301Y-44476501D03*
%TD*%
%TO.P,SW19,2*%
%TO.N,Net-(D19-Pad2)*%
X108365301Y-64676501D03*
X118365301Y-64676501D03*
%TO.P,SW19,1*%
%TO.N,Net-(SW19-Pad1)*%
X113365301Y-62576501D03*
%TD*%
%TO.P,SW18,2*%
%TO.N,Net-(D18-Pad2)*%
X89265301Y-114376501D03*
X99265301Y-114376501D03*
%TO.P,SW18,1*%
%TO.N,Net-(SW18-Pad1)*%
X94265301Y-112276501D03*
%TD*%
%TO.P,SW17,2*%
%TO.N,Net-(D17-Pad2)*%
X127465301Y-64676501D03*
X137465301Y-64676501D03*
%TO.P,SW17,1*%
%TO.N,Net-(SW17-Pad1)*%
X132465301Y-62576501D03*
%TD*%
%TO.P,SW16,2*%
%TO.N,Net-(D16-Pad2)*%
X108365301Y-82776501D03*
X118365301Y-82776501D03*
%TO.P,SW16,1*%
%TO.N,Net-(SW16-Pad1)*%
X113365301Y-80676501D03*
%TD*%
%TO.P,SW15,2*%
%TO.N,Net-(D15-Pad2)*%
X146365301Y-46576501D03*
X156365301Y-46576501D03*
%TO.P,SW15,1*%
%TO.N,Net-(SW15-Pad1)*%
X151365301Y-44476501D03*
%TD*%
%TO.P,SW14,2*%
%TO.N,Net-(D14-Pad2)*%
X165465301Y-46576501D03*
X175465301Y-46576501D03*
%TO.P,SW14,1*%
%TO.N,Net-(SW14-Pad1)*%
X170465301Y-44476501D03*
%TD*%
%TO.P,SW13,2*%
%TO.N,Net-(D13-Pad2)*%
X127465301Y-82776501D03*
X137465301Y-82776501D03*
%TO.P,SW13,1*%
%TO.N,Net-(SW13-Pad1)*%
X132465301Y-80676501D03*
%TD*%
%TO.P,SW12,2*%
%TO.N,Net-(D12-Pad2)*%
X127465301Y-118976501D03*
X137465301Y-118976501D03*
%TO.P,SW12,1*%
%TO.N,Net-(SW12-Pad1)*%
X132465301Y-116876501D03*
%TD*%
%TO.P,SW11,2*%
%TO.N,Net-(D11-Pad2)*%
X146565301Y-100876501D03*
X156565301Y-100876501D03*
%TO.P,SW11,1*%
%TO.N,Net-(SW11-Pad1)*%
X151565301Y-98776501D03*
%TD*%
%TO.P,SW10,2*%
%TO.N,Net-(D10-Pad2)*%
X165665301Y-64676501D03*
X175665301Y-64676501D03*
%TO.P,SW10,1*%
%TO.N,Net-(SW10-Pad1)*%
X170665301Y-62576501D03*
%TD*%
%TO.P,SW9,2*%
%TO.N,Net-(D9-Pad2)*%
X184565301Y-46576501D03*
X194565301Y-46576501D03*
%TO.P,SW9,1*%
%TO.N,Net-(SW9-Pad1)*%
X189565301Y-44476501D03*
%TD*%
%TO.P,SW8,2*%
%TO.N,Net-(D8-Pad2)*%
X108365301Y-118976501D03*
X118365301Y-118976501D03*
%TO.P,SW8,1*%
%TO.N,Net-(SW8-Pad1)*%
X113365301Y-116876501D03*
%TD*%
%TO.P,SW7,2*%
%TO.N,Net-(D7-Pad2)*%
X127465301Y-100876501D03*
X137465301Y-100876501D03*
%TO.P,SW7,1*%
%TO.N,Net-(SW7-Pad1)*%
X132465301Y-98776501D03*
%TD*%
%TO.P,SW6,2*%
%TO.N,Net-(D6-Pad2)*%
X146565301Y-82776501D03*
X156565301Y-82776501D03*
%TO.P,SW6,1*%
%TO.N,Net-(SW6-Pad1)*%
X151565301Y-80676501D03*
%TD*%
%TO.P,SW5,2*%
%TO.N,Net-(D5-Pad2)*%
X146565301Y-64676501D03*
X156565301Y-64676501D03*
%TO.P,SW5,1*%
%TO.N,Net-(SW5-Pad1)*%
X151565301Y-62576501D03*
%TD*%
%TO.P,SW4,2*%
%TO.N,Net-(D4-Pad2)*%
X89265301Y-78176501D03*
X99265301Y-78176501D03*
%TO.P,SW4,1*%
%TO.N,Net-(SW4-Pad1)*%
X94265301Y-76076501D03*
%TD*%
%TO.P,SW3,2*%
%TO.N,Net-(D3-Pad2)*%
X203865301Y-82776501D03*
X213865301Y-82776501D03*
%TO.P,SW3,1*%
%TO.N,Net-(SW3-Pad1)*%
X208865301Y-80676501D03*
%TD*%
%TO.P,SW2,2*%
%TO.N,Net-(D2-Pad2)*%
X184765301Y-64676501D03*
X194765301Y-64676501D03*
%TO.P,SW2,1*%
%TO.N,Net-(SW2-Pad1)*%
X189765301Y-62576501D03*
%TD*%
%TO.P,SW1,2*%
%TO.N,Net-(D1-Pad2)*%
X203665301Y-46576501D03*
X213665301Y-46576501D03*
%TO.P,SW1,1*%
%TO.N,Net-(SW1-Pad1)*%
X208665301Y-44476501D03*
%TD*%
D14*
%TO.P,J2,1*%
%TO.N,Net-(J2-Pad1)*%
X94915300Y-138276500D03*
%TO.P,J2,2*%
%TO.N,/data*%
X90315300Y-130076500D03*
%TO.P,J2,3*%
%TO.N,GND*%
X90315300Y-133076500D03*
%TO.P,J2,4*%
%TO.N,+5V*%
X90315300Y-137076500D03*
%TO.P,J2,1*%
%TO.N,Net-(J2-Pad1)*%
X85715300Y-138276500D03*
%TD*%
D15*
%TO.P,J1,4*%
%TO.N,Net-(J1-Pad4)*%
X98240301Y-137171501D03*
%TO.P,J1,3*%
%TO.N,Net-(J1-Pad3)*%
X98240301Y-134631501D03*
%TO.P,J1,2*%
%TO.N,Net-(J1-Pad2)*%
X98240301Y-132091501D03*
D16*
%TO.P,J1,1*%
%TO.N,Net-(J1-Pad1)*%
X98240301Y-129551501D03*
%TD*%
M02*
